<?xml version="1.0" encoding="UTF-8"?>
<svg id="Layer_2" data-name="Layer 2" xmlns="http://www.w3.org/2000/svg" viewBox="0 0 2537.37 696.31">
  <defs>
    <style>
      .cls-1 {
        stroke: #fff;
      }

      .cls-1, .cls-2, .cls-3, .cls-4 {
        stroke-miterlimit: 10;
        stroke-width: 25px;
      }

      .cls-1, .cls-5 {
        fill: #fff;
      }

      .cls-2 {
        fill: #d2e2ff;
      }

      .cls-2, .cls-3, .cls-4 {
        stroke: #004dcd;
      }

      .cls-3 {
        fill: #ccdbf5;
      }

      .cls-4 {
        fill: none;
      }

      .cls-5, .cls-6 {
        stroke-width: 0px;
      }

      .cls-6 {
        fill: #004dcd;
      }
    </style>
  </defs>
  <g id="Layer_10" data-name="Layer 10">
    <g>
      <g>
        <path class="cls-1" d="M2446.12,60.92h-146.05l-90.22,86.03-16.98-17.39V23.21h-65.58l-6.61,12.77V12.5h-59.1l-41.99,40.43-.02,51.03-81.56,81.53v60.8l49.9,49.89h46.92v33.69l-25.89,26.99v70.15h25.85s-.05,23.79-.05,23.79l-25.8,26.63v64.47l25.34,25.35-9.04-.2v41.09h129.17v23.78h75.81s45.81,0,45.81,0l42.91-42.91,137.33-138.21v-130.64l6.12,1.55,62.48-62.49v-119.54l-78.75-78.75ZM2227.39,629.08h2s-2,.01-2,.01h0Z"/>
        <g>
          <g>
            <polygon class="cls-2" points="2507.87 146.72 2507.87 252.18 2457.7 302.35 2439.26 302.35 2439.26 443.79 2306.88 577.02 2306.88 416.61 2275.69 385.4 2275.69 356.07 2209.86 290.23 2209.86 170.46 2306.88 77.93 2439.08 77.93 2507.87 146.72"/>
            <line class="cls-3" x1="2229.4" y1="614.92" x2="2227.4" y2="614.92"/>
            <polygon class="cls-2" points="2306.88 416.61 2306.88 577.02 2268.99 614.92 2233.4 614.92 2210.77 591.15 2082.23 591.15 2025.95 534.87 2025.95 484.33 2051.73 457.71 2051.84 409.99 2025.95 410 2025.95 363.71 2051.85 336.72 2051.85 279.19 1994.95 279.19 1955.02 239.26 1955.02 192.54 2036.57 111.01 2103.67 111.01 2103.67 81.27 2145.72 40.22 2175.87 40.22 2175.87 136.49 2209.85 171.29 2209.85 170.47 2209.85 290.23 2275.68 356.07 2275.68 385.41 2306.88 416.61"/>
            <line class="cls-3" x1="2227.4" y1="614.92" x2="2159.25" y2="614.92"/>
            <line class="cls-3" x1="2082.23" y1="591.14" x2="2028.08" y2="591.14"/>
            <polygon class="cls-2" points="2103.67 29.51 2103.67 111.01 2036.57 111.01 2036.59 60.18 2068.44 29.51 2103.67 29.51"/>
            <polyline class="cls-4" points="2032.68 541.6 2060.25 541.6 2109.8 591.14"/>
            <path class="cls-4" d="M2141.2,319.27l-41.21,44.44v46.27h71.73v47.1l-35.15,38.14.03,41.73,50.04,54.19"/>
          </g>
          <g>
            <path class="cls-6" d="M2081.05,228.28c20.42,0,36.98-16.56,36.98-36.98s-16.56-36.98-36.98-36.98-36.98,16.56-36.98,36.98,16.56,36.98,36.98,36.98Z"/>
            <path class="cls-5" d="M2073.04,192.59c7.34,0,13.29-5.95,13.29-13.29s-5.95-13.29-13.29-13.29-13.29,5.95-13.29,13.29,5.95,13.29,13.29,13.29Z"/>
          </g>
          <path class="cls-6" d="M1962.94,234.35h36.84v-36.79l-36.84-.07v36.85Z"/>
          <polyline class="cls-4" points="2439.26 302.35 2400.76 302.35 2400.76 247.13"/>
        </g>
      </g>
      <g>
        <path class="cls-5" d="M19.01,355.09c12.98-25.04,31.06-44.04,54.71-57.95,23.64-13.91,51.46-20.86,82.99-20.86,24.11,0,46.36,4.64,65.83,13.91,19.47,9.27,35.7,22.72,48.22,39.87,12.05,17.15,19.94,37.09,23.64,59.34h-53.32c-5.56-20.4-15.76-36.63-30.6-48.68-15.3-11.59-33.84-17.62-56.1-17.62-20.4,0-38.02,5.1-52.85,15.3-15.3,10.2-26.89,24.11-34.77,41.73-8.35,17.62-12.05,38.02-12.05,61.2s3.71,43.58,12.05,61.2c7.88,18.08,19.47,31.99,34.77,42.19,14.84,10.2,32.45,14.83,52.85,14.83,22.25,0,40.8-5.56,55.63-17.61,14.84-11.59,25.04-27.82,30.6-48.68h53.32c-3.71,23.18-11.59,43.12-23.64,59.81-12.05,17.16-27.82,30.14-47.29,39.41-19.47,9.27-41.73,13.91-66.3,13.91-31.53,0-59.34-6.49-82.99-20.4-23.64-13.45-41.73-32.46-54.71-57.49C6.03,503.44,0,474.7,0,441.32s6.03-61.2,19.01-86.23Z"/>
        <path class="cls-5" d="M355.79,366.21l66.3,183.13,64.44-183.13h53.31l-107.56,274.46c-5.56,14.37-10.67,25.5-15.3,32.92-4.63,7.42-10.66,13.45-17.15,17.16-6.95,3.71-16.23,5.56-27.35,5.56h-53.78v-44.04h35.24c9.27,0,16.23-1.39,19.94-4.17,3.71-2.78,7.42-9.74,11.59-19.94l9.74-22.72-92.72-239.23h53.32Z"/>
        <path class="cls-5" d="M737.52,378.27c16.69,9.74,30.14,23.64,39.87,41.73,9.27,18.54,14.37,39.87,14.37,64.91s-5.1,44.97-14.37,63.52c-9.74,18.54-23.18,32.45-39.87,42.65-17.15,10.2-36.62,15.3-57.95,15.3-17.61,0-32.92-3.25-45.9-9.74-12.98-6.49-23.64-15.76-31.52-27.36l-6.03,34.31h-43.58v-324.53h50.07v122.4c18.54-25.04,44.51-38.02,76.96-38.02,21.33,0,40.8,5.1,57.95,14.84ZM721.3,542.39c12.98-14.84,19.47-33.84,19.47-57.49s-6.49-41.73-19.47-56.56c-12.98-14.84-29.67-22.25-50.07-22.25s-37.55,7.42-50.07,21.79c-12.98,14.83-19.01,33.38-19.01,56.56s6.03,42.65,19.01,57.49c12.52,14.83,29.21,22.25,50.07,22.25s37.09-6.96,50.07-21.79Z"/>
        <path class="cls-5" d="M829.82,421.39c9.73-18.54,23.18-32.45,40.8-42.65,17.62-10.2,37.55-15.3,60.27-15.3s42.65,4.64,60.27,13.91,31.06,22.72,41.26,39.41c10.2,17.15,15.3,37.09,15.76,59.81,0,6.49-.46,12.52-1.39,19.01h-178.96v2.78c.93,20.86,7.42,37.09,19.47,49.14,11.59,12.05,27.36,18.08,46.83,18.08,15.3,0,28.28-3.24,38.94-10.66,10.2-7.42,17.16-17.62,20.86-31.06h50.07c-4.63,24.11-16.23,44.04-35.23,59.34-19.01,15.76-42.66,23.18-70.94,23.18-25.03,0-46.36-4.64-64.91-14.84-18.54-10.2-32.45-24.11-42.65-42.65-10.2-18.08-14.84-39.41-14.84-63.52s4.64-45.43,14.38-63.98ZM997.18,458.94c-2.32-17.15-9.27-30.6-20.86-40.33-11.59-9.74-25.96-14.84-43.58-14.84-16.69,0-30.6,5.1-42.65,15.3-12.05,10.2-18.55,23.18-20.4,39.87h127.5Z"/>
        <path class="cls-5" d="M1215.23,366.21v46.83h-81.13v190.55h-50.07v-237.37h131.2Z"/>
        <path class="cls-5" d="M1247.48,603.59v-324.53h48.68l158.09,229.95v-229.95h52.39v324.53h-48.68l-158.09-229.95v229.95h-52.39Z"/>
        <path class="cls-5" d="M1768.83,366.21v237.37h-44.04l-5.56-30.14c-18.08,22.25-42.65,32.92-73.25,32.92-27.82,0-50.54-8.34-67.69-25.96-17.62-17.16-25.96-44.97-25.96-83.45v-130.74h50.07v125.64c0,23.18,4.63,40.8,13.91,52.85,9.27,12.05,22.72,18.08,41.26,18.08s33.84-6.95,44.97-20.86c10.66-13.91,16.23-33.38,16.23-57.95v-117.76h50.07Z"/>
        <path class="cls-5" d="M1831.19,410.26h-41.26v-44.04h41.26v-66.3h50.54v66.3h57.02v44.04h-57.02v123.79c0,9.27,1.85,16.23,5.56,19.94,3.71,3.71,9.74,5.56,19.01,5.56h38.02v44.04h-48.22c-22.72,0-39.41-5.1-49.61-15.76-10.2-10.2-15.3-26.43-15.3-48.68v-128.88Z"/>
      </g>
    </g>
  </g>
</svg>