<?xml version="1.0" encoding="UTF-8"?>
<svg id="Layer_2" data-name="Layer 2" xmlns="http://www.w3.org/2000/svg" viewBox="0 0 577.85 610.41">
  <defs>
    <style>
      .cls-1 {
        fill: #d2e2ff;
      }

      .cls-1, .cls-2, .cls-3 {
        stroke: #004dcd;
        stroke-miterlimit: 10;
        stroke-width: 25px;
      }

      .cls-2 {
        fill: #ccdbf5;
      }

      .cls-3 {
        fill: none;
      }

      .cls-4 {
        fill: #fff;
      }

      .cls-4, .cls-5 {
        stroke-width: 0px;
      }

      .cls-5 {
        fill: #004dcd;
      }
    </style>
  </defs>
  <g id="Layer_10" data-name="Layer 10">
    <g>
      <g>
        <polygon class="cls-1" points="565.35 129.71 565.35 235.17 515.18 285.34 496.74 285.34 496.74 426.78 364.36 560.01 364.36 399.6 333.17 368.39 333.17 339.06 267.34 273.22 267.34 153.45 364.36 60.92 496.56 60.92 565.35 129.71"/>
        <line class="cls-2" x1="286.88" y1="597.91" x2="284.88" y2="597.91"/>
        <polygon class="cls-1" points="364.36 399.6 364.36 560.01 326.47 597.91 290.88 597.91 268.25 574.14 139.71 574.14 83.43 517.86 83.43 467.32 109.21 440.7 109.32 392.98 83.43 392.99 83.43 346.7 109.33 319.71 109.33 262.18 52.43 262.18 12.5 222.25 12.5 175.53 94.05 94 161.15 94 161.15 64.26 203.2 23.21 233.35 23.21 233.35 119.48 267.33 154.29 267.33 153.46 267.33 273.22 333.16 339.06 333.16 368.4 364.36 399.6"/>
        <line class="cls-2" x1="284.88" y1="597.91" x2="216.73" y2="597.91"/>
        <line class="cls-2" x1="139.71" y1="574.14" x2="85.56" y2="574.14"/>
        <polygon class="cls-1" points="161.15 12.5 161.15 94 94.05 94 94.07 43.17 125.92 12.5 161.15 12.5"/>
        <polyline class="cls-3" points="90.17 524.59 117.73 524.59 167.28 574.14"/>
        <path class="cls-3" d="M198.68,302.27l-41.21,44.44v46.27h71.73v47.1l-35.15,38.14.03,41.73,50.04,54.19"/>
      </g>
      <g>
        <path class="cls-5" d="M138.53,211.28c20.42,0,36.98-16.56,36.98-36.98s-16.56-36.98-36.98-36.98-36.98,16.56-36.98,36.98,16.56,36.98,36.98,36.98Z"/>
        <path class="cls-4" d="M130.52,175.58c7.34,0,13.29-5.95,13.29-13.29s-5.95-13.29-13.29-13.29-13.29,5.95-13.29,13.29,5.95,13.29,13.29,13.29Z"/>
      </g>
      <path class="cls-5" d="M20.43,217.35h36.84v-36.79l-36.84-.07v36.85Z"/>
      <polyline class="cls-3" points="496.74 285.34 458.24 285.34 458.24 230.13"/>
    </g>
  </g>
</svg>